<svg width="69" height="69" viewBox="0 0 69 69" fill="none" xmlns="http://www.w3.org/2000/svg">
<circle cx="34.0416" cy="34.9306" r="34.0347" fill="#313131"/>
<path fill-rule="evenodd" clip-rule="evenodd" d="M24.3593 33.757C24.3593 29.0578 28.1688 25.2483 32.868 25.2483C37.5672 25.2483 41.3767 29.0578 41.3767 33.757C41.3767 38.4562 37.5672 42.2657 32.868 42.2657C28.1688 42.2657 24.3593 38.4562 24.3593 33.757ZM32.868 23.4879C27.1965 23.4879 22.5989 28.0855 22.5989 33.757C22.5989 39.4285 27.1965 44.0261 32.868 44.0261C35.3868 44.0261 37.6938 43.1192 39.4804 41.6142L42.8081 44.9419C43.1518 45.2857 43.7091 45.2857 44.0529 44.9419C44.3966 44.5982 44.3966 44.0409 44.0529 43.6971L40.7252 40.3694C42.2302 38.5829 43.1371 36.2759 43.1371 33.757C43.1371 28.0855 38.5394 23.4879 32.868 23.4879Z" fill="white"/>
</svg>
