<svg width="59" height="58" viewBox="0 0 59 58" fill="none" xmlns="http://www.w3.org/2000/svg">
<rect x="0.958496" y="0.013916" width="57.5069" height="57.5069" rx="28.7535" fill="#212121"/>
<rect x="0.958496" y="0.013916" width="57.5069" height="57.5069" rx="28.7535" fill="#141414"/>
<path d="M30.2987 36.6894C25.6043 36.6894 21.79 32.8751 21.79 28.1807C21.79 23.4862 25.6043 19.672 30.2987 19.672C34.9932 19.672 38.8074 23.4862 38.8074 28.1807C38.8074 32.8751 34.9932 36.6894 30.2987 36.6894ZM30.2987 21.4324C26.5784 21.4324 23.5505 24.4603 23.5505 28.1807C23.5505 31.901 26.5784 34.9289 30.2987 34.9289C34.0191 34.9289 37.047 31.901 37.047 28.1807C37.047 24.4603 34.0191 21.4324 30.2987 21.4324Z" fill="white"/>
<path d="M30.2986 41.0434C29.6532 41.0434 29.125 40.5622 29.125 39.9167V39.8228C29.125 39.1773 29.6532 38.6492 30.2986 38.6492C30.9441 38.6492 31.4723 39.1773 31.4723 39.8228C31.4723 40.4683 30.9441 41.0434 30.2986 41.0434ZM38.6782 37.7338C38.3731 37.7338 38.0797 37.6164 37.845 37.3934L37.6924 37.2409C37.2347 36.7832 37.2347 36.0438 37.6924 35.5861C38.1501 35.1284 38.8895 35.1284 39.3472 35.5861L39.4998 35.7387C39.9575 36.1964 39.9575 36.9357 39.4998 37.3934C39.2768 37.6164 38.9834 37.7338 38.6782 37.7338ZM21.9191 37.7338C21.6139 37.7338 21.3205 37.6164 21.0858 37.3934C20.6281 36.9357 20.6281 36.1964 21.0858 35.7387L21.2384 35.5861C21.6961 35.1284 22.4354 35.1284 22.8932 35.5861C23.3509 36.0438 23.3509 36.7832 22.8932 37.2409L22.7406 37.3934C22.5176 37.6164 22.2125 37.7338 21.9191 37.7338ZM42.0348 29.3542H41.9409C41.2954 29.3542 40.7673 28.8261 40.7673 28.1806C40.7673 27.5351 41.2954 27.007 41.9409 27.007C42.5863 27.007 43.1614 27.5351 43.1614 28.1806C43.1614 28.8261 42.6802 29.3542 42.0348 29.3542ZM18.6564 29.3542H18.5625C17.917 29.3542 17.3889 28.8261 17.3889 28.1806C17.3889 27.5351 17.917 27.007 18.5625 27.007C19.208 27.007 19.7831 27.5351 19.7831 28.1806C19.7831 28.8261 19.3019 29.3542 18.6564 29.3542ZM38.5257 21.1272C38.2205 21.1272 37.9271 21.0098 37.6924 20.7868C37.2347 20.3291 37.2347 19.5898 37.6924 19.1321L37.845 18.9795C38.3027 18.5218 39.042 18.5218 39.4998 18.9795C39.9575 19.4372 39.9575 20.1766 39.4998 20.6343L39.3472 20.7868C39.1242 21.0098 38.8308 21.1272 38.5257 21.1272ZM22.0716 21.1272C21.7665 21.1272 21.4731 21.0098 21.2384 20.7868L21.0858 20.6225C20.6281 20.1648 20.6281 19.4255 21.0858 18.9677C21.5435 18.51 22.2829 18.51 22.7406 18.9677L22.8932 19.1203C23.3509 19.578 23.3509 20.3174 22.8932 20.7751C22.6702 21.0098 22.365 21.1272 22.0716 21.1272ZM30.2986 17.665C29.6532 17.665 29.125 17.1839 29.125 16.5384V16.4445C29.125 15.799 29.6532 15.2709 30.2986 15.2709C30.9441 15.2709 31.4723 15.799 31.4723 16.4445C31.4723 17.09 30.9441 17.665 30.2986 17.665Z" fill="white"/>
</svg>
