<svg width="179" height="94" viewBox="0 0 179 94" fill="none" xmlns="http://www.w3.org/2000/svg">
<path d="M15.6027 21.9155C20.9438 21.9155 24.5914 25.5197 24.5914 30.9042V46.1459H18.0778V32.2937C18.0778 29.5581 16.2975 27.7777 13.7355 27.7777C11.1735 27.7777 9.3931 29.5581 9.3931 32.2937V46.1459H2.87955V22.4366H8.95886V25.3025C10.1747 23.0011 12.6064 21.9155 15.6027 21.9155ZM50.9427 33.5964C50.9427 34.5518 50.8559 35.4637 50.6387 36.115H33.9641C34.3549 39.1112 36.4826 41.0219 39.696 41.0219C41.9974 41.0219 43.691 40.0231 44.6029 38.4165L49.8137 40.8916C48.3807 44.3655 44.4726 46.667 39.6091 46.667C32.0969 46.667 27.19 41.1087 27.19 34.2478C27.19 27.1698 32.4008 21.9155 39.1749 21.9155C45.8187 21.9155 50.9427 27.0395 50.9427 33.5964ZM34.0943 31.3384H44.0384C43.7778 28.8199 41.8672 27.1263 39.1749 27.1263C36.6129 27.1263 34.7457 28.6027 34.0943 31.3384ZM63.1512 46.667C57.9838 46.667 53.7283 44.1484 52.2519 39.8494L57.0719 37.5914C58.3312 40.2403 60.4589 41.6732 63.1512 41.6732C65.1921 41.6732 66.4948 40.8482 66.4948 39.5455C66.4948 37.9822 64.5842 37.5046 63.7591 37.2875L59.5905 36.2019C55.2915 35.0729 53.2072 32.5543 53.2072 29.2975C53.2072 24.9117 56.985 21.9155 62.5433 21.9155C67.4067 21.9155 71.2714 24.2604 72.7912 28.1251L67.9278 30.3831C67.1462 28.3422 65.1053 27.1263 62.5433 27.1263C60.6326 27.1263 59.5036 27.8645 59.5036 29.0804C59.5036 30.5134 61.1537 30.9476 61.9353 31.1647L66.3211 32.3372C70.5332 33.4662 72.7912 35.8979 72.7912 39.2849C72.7912 43.6707 68.8397 46.667 63.1512 46.667ZM87.1946 46.4064C81.4627 46.4064 78.1625 43.1496 78.1625 37.5914V28.0817H74.0807V22.4366H74.3847C76.8164 22.4366 78.1625 21.2207 78.1625 18.789V15.3151H84.6761V22.4366H90.2343V28.0817H84.6761V37.5914C84.6761 40.0231 85.9788 41.1956 88.7145 41.1956C89.1053 41.1956 89.6264 41.1522 90.2343 41.0653V46.1893C89.3658 46.3196 88.1934 46.4064 87.1946 46.4064ZM123.034 22.4366H129.808L121.645 46.1459H115.913L110.485 30.3397L105.013 46.1459H99.2813L91.1177 22.4366H97.8484L102.234 36.5927L106.837 22.4366H114.089L118.692 36.5927L123.034 22.4366ZM141.189 21.9155C147.225 21.9155 151.35 25.4328 151.35 30.5134V46.1459H145.271V43.9747C143.491 45.8419 141.319 46.667 138.584 46.667C133.199 46.667 129.812 43.6273 129.812 39.6758C129.812 36.1584 132.591 33.857 137.411 32.8582L144.837 31.295V30.5134C144.837 28.733 143.36 27.5606 141.189 27.5606C138.888 27.5606 136.977 28.9067 136.282 31.0345L130.681 28.3422C132.07 24.4341 136.152 21.9155 141.189 21.9155ZM139.583 41.8904C142.535 41.8904 144.837 39.7626 144.837 37.1138V35.9847L138.584 37.3743C137.238 37.6783 136.543 38.5033 136.543 39.5889C136.543 41.0219 137.715 41.8904 139.583 41.8904ZM170.8 22.4366H177.747L167.456 48.7513C166.588 51.0093 164.59 55.8293 158.207 55.8293C156.817 55.8293 155.471 55.6122 154.472 55.0911V49.75C155.297 50.0106 156.47 50.1843 157.425 50.1843C160.031 50.1843 160.769 48.7513 161.333 47.492L161.941 46.1459L152.649 22.4366H159.596L165.198 37.8085L170.8 22.4366Z" fill="white"/>
<path d="M77.6718 61.2828C76.8923 60.4715 75.6028 60.4458 74.7915 61.2254C60.2131 75.234 36.9875 74.8032 23.0179 60.2653C22.2384 59.4541 20.9489 59.4284 20.1377 60.2079C19.3264 60.9874 19.3007 62.2769 20.0803 63.0882C23.8903 67.0532 28.3609 70.1502 33.3679 72.2935C38.2019 74.3627 43.3311 75.4604 48.6132 75.5561C53.8917 75.6517 59.06 74.742 63.9747 72.8522C69.0599 70.897 73.6488 67.9735 77.6144 64.163C78.4256 63.3835 78.4513 62.094 77.6718 61.2828Z" fill="white"/>
<path d="M83.6223 59.0962C82.6083 60.0706 80.9963 60.0385 80.022 59.0245C79.0476 58.0105 79.0797 56.3985 80.0938 55.4242C81.1078 54.4498 82.7197 54.4819 83.694 55.4959C84.6684 56.51 84.6363 58.1219 83.6223 59.0962ZM17.8807 54.184C16.9063 53.17 15.2944 53.1379 14.2804 54.1123C13.2664 55.0866 13.2343 56.6985 14.2086 57.7125C15.183 58.7266 16.7949 58.7587 17.8089 57.7843C18.8229 56.81 18.8551 55.198 17.8807 54.184Z" fill="white"/>
</svg>
